G04 EAGLE Gerber RS-274X export*
G75*
%MOMM*%
%FSLAX34Y34*%
%LPD*%
%INTop Copper*%
%IPPOS*%
%AMOC8*
5,1,8,0,0,1.08239X$1,22.5*%
G01*
%ADD10C,0.152400*%
%ADD11C,1.790700*%
%ADD12C,1.981200*%
%ADD13C,1.524000*%
%ADD14P,1.429621X8X202.500000*%
%ADD15C,1.508000*%
%ADD16P,1.429621X8X22.500000*%
%ADD17C,1.676400*%
%ADD18C,0.254000*%


D10*
X178562Y30678D02*
X178562Y37902D01*
X178564Y38035D01*
X178570Y38167D01*
X178580Y38299D01*
X178593Y38431D01*
X178611Y38563D01*
X178632Y38693D01*
X178657Y38824D01*
X178686Y38953D01*
X178719Y39081D01*
X178755Y39209D01*
X178795Y39335D01*
X178839Y39460D01*
X178887Y39584D01*
X178938Y39706D01*
X178993Y39827D01*
X179051Y39946D01*
X179113Y40064D01*
X179178Y40179D01*
X179247Y40293D01*
X179318Y40404D01*
X179394Y40513D01*
X179472Y40620D01*
X179553Y40725D01*
X179638Y40827D01*
X179725Y40927D01*
X179815Y41024D01*
X179908Y41119D01*
X180004Y41210D01*
X180102Y41299D01*
X180203Y41385D01*
X180307Y41468D01*
X180413Y41548D01*
X180521Y41624D01*
X180631Y41698D01*
X180744Y41768D01*
X180858Y41835D01*
X180975Y41898D01*
X181093Y41958D01*
X181213Y42015D01*
X181335Y42068D01*
X181458Y42117D01*
X181582Y42163D01*
X181708Y42205D01*
X181835Y42243D01*
X181963Y42278D01*
X182092Y42309D01*
X182221Y42336D01*
X182352Y42359D01*
X182483Y42379D01*
X182615Y42394D01*
X182747Y42406D01*
X182879Y42414D01*
X183012Y42418D01*
X183144Y42418D01*
X183277Y42414D01*
X183409Y42406D01*
X183541Y42394D01*
X183673Y42379D01*
X183804Y42359D01*
X183935Y42336D01*
X184064Y42309D01*
X184193Y42278D01*
X184321Y42243D01*
X184448Y42205D01*
X184574Y42163D01*
X184698Y42117D01*
X184821Y42068D01*
X184943Y42015D01*
X185063Y41958D01*
X185181Y41898D01*
X185298Y41835D01*
X185412Y41768D01*
X185525Y41698D01*
X185635Y41624D01*
X185743Y41548D01*
X185849Y41468D01*
X185953Y41385D01*
X186054Y41299D01*
X186152Y41210D01*
X186248Y41119D01*
X186341Y41024D01*
X186431Y40927D01*
X186518Y40827D01*
X186603Y40725D01*
X186684Y40620D01*
X186762Y40513D01*
X186838Y40404D01*
X186909Y40293D01*
X186978Y40179D01*
X187043Y40064D01*
X187105Y39946D01*
X187163Y39827D01*
X187218Y39706D01*
X187269Y39584D01*
X187317Y39460D01*
X187361Y39335D01*
X187401Y39209D01*
X187437Y39081D01*
X187470Y38953D01*
X187499Y38824D01*
X187524Y38693D01*
X187545Y38563D01*
X187563Y38431D01*
X187576Y38299D01*
X187586Y38167D01*
X187592Y38035D01*
X187594Y37902D01*
X187593Y37902D02*
X187593Y30678D01*
X187594Y30678D02*
X187592Y30545D01*
X187586Y30413D01*
X187576Y30281D01*
X187563Y30149D01*
X187545Y30017D01*
X187524Y29887D01*
X187499Y29756D01*
X187470Y29627D01*
X187437Y29499D01*
X187401Y29371D01*
X187361Y29245D01*
X187317Y29120D01*
X187269Y28996D01*
X187218Y28874D01*
X187163Y28753D01*
X187105Y28634D01*
X187043Y28516D01*
X186978Y28401D01*
X186909Y28287D01*
X186838Y28176D01*
X186762Y28067D01*
X186684Y27960D01*
X186603Y27855D01*
X186518Y27753D01*
X186431Y27653D01*
X186341Y27556D01*
X186248Y27461D01*
X186152Y27370D01*
X186054Y27281D01*
X185953Y27195D01*
X185849Y27112D01*
X185743Y27032D01*
X185635Y26956D01*
X185525Y26882D01*
X185412Y26812D01*
X185298Y26745D01*
X185181Y26682D01*
X185063Y26622D01*
X184943Y26565D01*
X184821Y26512D01*
X184698Y26463D01*
X184574Y26417D01*
X184448Y26375D01*
X184321Y26337D01*
X184193Y26302D01*
X184064Y26271D01*
X183935Y26244D01*
X183804Y26221D01*
X183673Y26201D01*
X183541Y26186D01*
X183409Y26174D01*
X183277Y26166D01*
X183144Y26162D01*
X183012Y26162D01*
X182879Y26166D01*
X182747Y26174D01*
X182615Y26186D01*
X182483Y26201D01*
X182352Y26221D01*
X182221Y26244D01*
X182092Y26271D01*
X181963Y26302D01*
X181835Y26337D01*
X181708Y26375D01*
X181582Y26417D01*
X181458Y26463D01*
X181335Y26512D01*
X181213Y26565D01*
X181093Y26622D01*
X180975Y26682D01*
X180858Y26745D01*
X180744Y26812D01*
X180631Y26882D01*
X180521Y26956D01*
X180413Y27032D01*
X180307Y27112D01*
X180203Y27195D01*
X180102Y27281D01*
X180004Y27370D01*
X179908Y27461D01*
X179815Y27556D01*
X179725Y27653D01*
X179638Y27753D01*
X179553Y27855D01*
X179472Y27960D01*
X179394Y28067D01*
X179318Y28176D01*
X179247Y28287D01*
X179178Y28401D01*
X179113Y28516D01*
X179051Y28634D01*
X178993Y28753D01*
X178938Y28874D01*
X178887Y28996D01*
X178839Y29120D01*
X178795Y29245D01*
X178755Y29371D01*
X178719Y29499D01*
X178686Y29627D01*
X178657Y29756D01*
X178632Y29887D01*
X178611Y30017D01*
X178593Y30149D01*
X178580Y30281D01*
X178570Y30413D01*
X178564Y30545D01*
X178562Y30678D01*
X193290Y26162D02*
X198709Y42418D01*
X204127Y26162D01*
X202773Y30226D02*
X194645Y30226D01*
X210485Y26162D02*
X210485Y42418D01*
X215903Y33387D01*
X221322Y42418D01*
X221322Y26162D01*
X229314Y26162D02*
X229314Y42418D01*
X238345Y42418D02*
X229314Y32484D01*
X232926Y36096D02*
X238345Y26162D01*
X243553Y24356D02*
X250778Y44224D01*
X260192Y42418D02*
X260192Y26162D01*
X255676Y42418D02*
X264707Y42418D01*
X269362Y42418D02*
X274781Y26162D01*
X280199Y42418D01*
X289370Y42418D02*
X289370Y26162D01*
X284854Y42418D02*
X293886Y42418D01*
X299444Y38806D02*
X303959Y42418D01*
X303959Y26162D01*
X299444Y26162D02*
X308475Y26162D01*
X318687Y33387D02*
X324106Y33387D01*
X318687Y33387D02*
X318569Y33389D01*
X318451Y33395D01*
X318333Y33404D01*
X318216Y33418D01*
X318099Y33435D01*
X317982Y33456D01*
X317867Y33481D01*
X317752Y33510D01*
X317638Y33543D01*
X317526Y33579D01*
X317415Y33619D01*
X317305Y33662D01*
X317196Y33709D01*
X317089Y33759D01*
X316984Y33814D01*
X316881Y33871D01*
X316780Y33932D01*
X316680Y33996D01*
X316583Y34063D01*
X316488Y34133D01*
X316396Y34207D01*
X316305Y34283D01*
X316218Y34363D01*
X316133Y34445D01*
X316051Y34530D01*
X315971Y34617D01*
X315895Y34708D01*
X315821Y34800D01*
X315751Y34895D01*
X315684Y34992D01*
X315620Y35092D01*
X315559Y35193D01*
X315502Y35296D01*
X315447Y35401D01*
X315397Y35508D01*
X315350Y35617D01*
X315307Y35727D01*
X315267Y35838D01*
X315231Y35950D01*
X315198Y36064D01*
X315169Y36179D01*
X315144Y36294D01*
X315123Y36411D01*
X315106Y36528D01*
X315092Y36645D01*
X315083Y36763D01*
X315077Y36881D01*
X315075Y36999D01*
X315075Y37902D01*
X315074Y37902D02*
X315076Y38035D01*
X315082Y38167D01*
X315092Y38299D01*
X315105Y38431D01*
X315123Y38563D01*
X315144Y38693D01*
X315169Y38824D01*
X315198Y38953D01*
X315231Y39081D01*
X315267Y39209D01*
X315307Y39335D01*
X315351Y39460D01*
X315399Y39584D01*
X315450Y39706D01*
X315505Y39827D01*
X315563Y39946D01*
X315625Y40064D01*
X315690Y40179D01*
X315759Y40293D01*
X315830Y40404D01*
X315906Y40513D01*
X315984Y40620D01*
X316065Y40725D01*
X316150Y40827D01*
X316237Y40927D01*
X316327Y41024D01*
X316420Y41119D01*
X316516Y41210D01*
X316614Y41299D01*
X316715Y41385D01*
X316819Y41468D01*
X316925Y41548D01*
X317033Y41624D01*
X317143Y41698D01*
X317256Y41768D01*
X317370Y41835D01*
X317487Y41898D01*
X317605Y41958D01*
X317725Y42015D01*
X317847Y42068D01*
X317970Y42117D01*
X318094Y42163D01*
X318220Y42205D01*
X318347Y42243D01*
X318475Y42278D01*
X318604Y42309D01*
X318733Y42336D01*
X318864Y42359D01*
X318995Y42379D01*
X319127Y42394D01*
X319259Y42406D01*
X319391Y42414D01*
X319524Y42418D01*
X319656Y42418D01*
X319789Y42414D01*
X319921Y42406D01*
X320053Y42394D01*
X320185Y42379D01*
X320316Y42359D01*
X320447Y42336D01*
X320576Y42309D01*
X320705Y42278D01*
X320833Y42243D01*
X320960Y42205D01*
X321086Y42163D01*
X321210Y42117D01*
X321333Y42068D01*
X321455Y42015D01*
X321575Y41958D01*
X321693Y41898D01*
X321810Y41835D01*
X321924Y41768D01*
X322037Y41698D01*
X322147Y41624D01*
X322255Y41548D01*
X322361Y41468D01*
X322465Y41385D01*
X322566Y41299D01*
X322664Y41210D01*
X322760Y41119D01*
X322853Y41024D01*
X322943Y40927D01*
X323030Y40827D01*
X323115Y40725D01*
X323196Y40620D01*
X323274Y40513D01*
X323350Y40404D01*
X323421Y40293D01*
X323490Y40179D01*
X323555Y40064D01*
X323617Y39946D01*
X323675Y39827D01*
X323730Y39706D01*
X323781Y39584D01*
X323829Y39460D01*
X323873Y39335D01*
X323913Y39209D01*
X323949Y39081D01*
X323982Y38953D01*
X324011Y38824D01*
X324036Y38693D01*
X324057Y38563D01*
X324075Y38431D01*
X324088Y38299D01*
X324098Y38167D01*
X324104Y38035D01*
X324106Y37902D01*
X324106Y33387D01*
X324104Y33212D01*
X324098Y33038D01*
X324087Y32864D01*
X324072Y32690D01*
X324053Y32516D01*
X324030Y32343D01*
X324003Y32171D01*
X323971Y31999D01*
X323936Y31828D01*
X323896Y31658D01*
X323852Y31489D01*
X323804Y31321D01*
X323752Y31154D01*
X323696Y30989D01*
X323636Y30825D01*
X323573Y30662D01*
X323505Y30502D01*
X323433Y30342D01*
X323358Y30185D01*
X323278Y30029D01*
X323195Y29876D01*
X323109Y29724D01*
X323018Y29575D01*
X322924Y29428D01*
X322827Y29283D01*
X322726Y29140D01*
X322622Y29000D01*
X322514Y28863D01*
X322403Y28728D01*
X322289Y28596D01*
X322172Y28467D01*
X322051Y28340D01*
X321928Y28217D01*
X321801Y28096D01*
X321672Y27979D01*
X321540Y27865D01*
X321405Y27754D01*
X321268Y27646D01*
X321128Y27542D01*
X320985Y27441D01*
X320840Y27344D01*
X320693Y27250D01*
X320544Y27159D01*
X320392Y27073D01*
X320239Y26990D01*
X320083Y26910D01*
X319926Y26835D01*
X319766Y26763D01*
X319606Y26695D01*
X319443Y26632D01*
X319279Y26572D01*
X319114Y26516D01*
X318947Y26464D01*
X318779Y26416D01*
X318610Y26372D01*
X318440Y26332D01*
X318269Y26297D01*
X318097Y26265D01*
X317925Y26238D01*
X317752Y26215D01*
X317578Y26196D01*
X317404Y26181D01*
X317230Y26170D01*
X317056Y26164D01*
X316881Y26162D01*
X335604Y26162D02*
X335722Y26164D01*
X335840Y26170D01*
X335958Y26179D01*
X336075Y26193D01*
X336192Y26210D01*
X336309Y26231D01*
X336424Y26256D01*
X336539Y26285D01*
X336653Y26318D01*
X336765Y26354D01*
X336876Y26394D01*
X336986Y26437D01*
X337095Y26484D01*
X337202Y26534D01*
X337307Y26589D01*
X337410Y26646D01*
X337511Y26707D01*
X337611Y26771D01*
X337708Y26838D01*
X337803Y26908D01*
X337895Y26982D01*
X337986Y27058D01*
X338073Y27138D01*
X338158Y27220D01*
X338240Y27305D01*
X338320Y27392D01*
X338396Y27483D01*
X338470Y27575D01*
X338540Y27670D01*
X338607Y27767D01*
X338671Y27867D01*
X338732Y27968D01*
X338789Y28071D01*
X338844Y28176D01*
X338894Y28283D01*
X338941Y28392D01*
X338984Y28502D01*
X339024Y28613D01*
X339060Y28725D01*
X339093Y28839D01*
X339122Y28954D01*
X339147Y29069D01*
X339168Y29186D01*
X339185Y29303D01*
X339199Y29420D01*
X339208Y29538D01*
X339214Y29656D01*
X339216Y29774D01*
X335604Y26162D02*
X335421Y26164D01*
X335239Y26171D01*
X335057Y26182D01*
X334875Y26197D01*
X334693Y26217D01*
X334512Y26240D01*
X334332Y26269D01*
X334152Y26301D01*
X333973Y26338D01*
X333796Y26379D01*
X333619Y26425D01*
X333443Y26474D01*
X333269Y26528D01*
X333095Y26586D01*
X332924Y26648D01*
X332754Y26714D01*
X332585Y26785D01*
X332418Y26859D01*
X332253Y26937D01*
X332090Y27019D01*
X331929Y27105D01*
X331770Y27195D01*
X331613Y27289D01*
X331459Y27386D01*
X331307Y27487D01*
X331157Y27592D01*
X331010Y27700D01*
X330866Y27811D01*
X330724Y27926D01*
X330585Y28045D01*
X330449Y28167D01*
X330316Y28292D01*
X330186Y28420D01*
X330637Y38806D02*
X330639Y38924D01*
X330645Y39042D01*
X330654Y39160D01*
X330668Y39277D01*
X330685Y39394D01*
X330706Y39511D01*
X330731Y39626D01*
X330760Y39741D01*
X330793Y39855D01*
X330829Y39967D01*
X330869Y40078D01*
X330912Y40188D01*
X330959Y40297D01*
X331009Y40404D01*
X331064Y40509D01*
X331121Y40612D01*
X331182Y40713D01*
X331246Y40813D01*
X331313Y40910D01*
X331383Y41005D01*
X331457Y41097D01*
X331533Y41188D01*
X331613Y41275D01*
X331695Y41360D01*
X331780Y41442D01*
X331867Y41522D01*
X331958Y41598D01*
X332050Y41672D01*
X332145Y41742D01*
X332242Y41809D01*
X332342Y41873D01*
X332443Y41934D01*
X332546Y41992D01*
X332651Y42046D01*
X332758Y42096D01*
X332867Y42143D01*
X332977Y42187D01*
X333088Y42226D01*
X333201Y42262D01*
X333314Y42295D01*
X333429Y42324D01*
X333544Y42349D01*
X333661Y42370D01*
X333778Y42387D01*
X333895Y42401D01*
X334013Y42410D01*
X334131Y42416D01*
X334249Y42418D01*
X334410Y42416D01*
X334572Y42410D01*
X334733Y42401D01*
X334894Y42387D01*
X335054Y42370D01*
X335214Y42349D01*
X335374Y42324D01*
X335533Y42295D01*
X335691Y42263D01*
X335848Y42227D01*
X336004Y42187D01*
X336160Y42143D01*
X336314Y42095D01*
X336467Y42044D01*
X336619Y41990D01*
X336770Y41931D01*
X336919Y41870D01*
X337066Y41804D01*
X337212Y41735D01*
X337357Y41663D01*
X337499Y41587D01*
X337640Y41508D01*
X337779Y41426D01*
X337915Y41340D01*
X338050Y41251D01*
X338183Y41159D01*
X338313Y41063D01*
X332442Y35645D02*
X332341Y35707D01*
X332241Y35772D01*
X332144Y35841D01*
X332049Y35913D01*
X331956Y35987D01*
X331866Y36065D01*
X331778Y36146D01*
X331693Y36229D01*
X331611Y36315D01*
X331532Y36404D01*
X331455Y36495D01*
X331382Y36589D01*
X331311Y36685D01*
X331244Y36783D01*
X331180Y36883D01*
X331119Y36986D01*
X331062Y37090D01*
X331008Y37196D01*
X330958Y37304D01*
X330911Y37413D01*
X330867Y37524D01*
X330827Y37636D01*
X330791Y37750D01*
X330759Y37864D01*
X330730Y37980D01*
X330705Y38096D01*
X330684Y38213D01*
X330667Y38331D01*
X330653Y38449D01*
X330644Y38568D01*
X330638Y38687D01*
X330636Y38806D01*
X337410Y32935D02*
X337511Y32873D01*
X337611Y32808D01*
X337708Y32739D01*
X337803Y32667D01*
X337896Y32593D01*
X337986Y32515D01*
X338074Y32434D01*
X338159Y32351D01*
X338241Y32265D01*
X338320Y32176D01*
X338397Y32085D01*
X338470Y31991D01*
X338541Y31895D01*
X338608Y31797D01*
X338672Y31697D01*
X338733Y31594D01*
X338790Y31490D01*
X338844Y31384D01*
X338894Y31276D01*
X338941Y31167D01*
X338985Y31056D01*
X339025Y30944D01*
X339061Y30830D01*
X339093Y30716D01*
X339122Y30600D01*
X339147Y30484D01*
X339168Y30367D01*
X339185Y30249D01*
X339199Y30131D01*
X339208Y30012D01*
X339214Y29893D01*
X339216Y29774D01*
X337410Y32935D02*
X332443Y35645D01*
X346027Y42418D02*
X346027Y26162D01*
X346027Y42418D02*
X350543Y42418D01*
X350676Y42416D01*
X350808Y42410D01*
X350940Y42400D01*
X351072Y42387D01*
X351204Y42369D01*
X351334Y42348D01*
X351465Y42323D01*
X351594Y42294D01*
X351722Y42261D01*
X351850Y42225D01*
X351976Y42185D01*
X352101Y42141D01*
X352225Y42093D01*
X352347Y42042D01*
X352468Y41987D01*
X352587Y41929D01*
X352705Y41867D01*
X352820Y41802D01*
X352934Y41733D01*
X353045Y41662D01*
X353154Y41586D01*
X353261Y41508D01*
X353366Y41427D01*
X353468Y41342D01*
X353568Y41255D01*
X353665Y41165D01*
X353760Y41072D01*
X353851Y40976D01*
X353940Y40878D01*
X354026Y40777D01*
X354109Y40673D01*
X354189Y40567D01*
X354265Y40459D01*
X354339Y40349D01*
X354409Y40236D01*
X354476Y40122D01*
X354539Y40005D01*
X354599Y39887D01*
X354656Y39767D01*
X354709Y39645D01*
X354758Y39522D01*
X354804Y39398D01*
X354846Y39272D01*
X354884Y39145D01*
X354919Y39017D01*
X354950Y38888D01*
X354977Y38759D01*
X355000Y38628D01*
X355020Y38497D01*
X355035Y38365D01*
X355047Y38233D01*
X355055Y38101D01*
X355059Y37968D01*
X355059Y37836D01*
X355055Y37703D01*
X355047Y37571D01*
X355035Y37439D01*
X355020Y37307D01*
X355000Y37176D01*
X354977Y37045D01*
X354950Y36916D01*
X354919Y36787D01*
X354884Y36659D01*
X354846Y36532D01*
X354804Y36406D01*
X354758Y36282D01*
X354709Y36159D01*
X354656Y36037D01*
X354599Y35917D01*
X354539Y35799D01*
X354476Y35682D01*
X354409Y35568D01*
X354339Y35455D01*
X354265Y35345D01*
X354189Y35237D01*
X354109Y35131D01*
X354026Y35027D01*
X353940Y34926D01*
X353851Y34828D01*
X353760Y34732D01*
X353665Y34639D01*
X353568Y34549D01*
X353468Y34462D01*
X353366Y34377D01*
X353261Y34296D01*
X353154Y34218D01*
X353045Y34142D01*
X352934Y34071D01*
X352820Y34002D01*
X352705Y33937D01*
X352587Y33875D01*
X352468Y33817D01*
X352347Y33762D01*
X352225Y33711D01*
X352101Y33663D01*
X351976Y33619D01*
X351850Y33579D01*
X351722Y33543D01*
X351594Y33510D01*
X351465Y33481D01*
X351334Y33456D01*
X351204Y33435D01*
X351072Y33417D01*
X350940Y33404D01*
X350808Y33394D01*
X350676Y33388D01*
X350543Y33386D01*
X350543Y33387D02*
X346027Y33387D01*
X361477Y26162D02*
X361477Y42418D01*
X361477Y26162D02*
X368702Y26162D01*
X373813Y24356D02*
X381038Y44224D01*
X389476Y26162D02*
X393991Y26162D01*
X389476Y26162D02*
X389375Y26164D01*
X389274Y26170D01*
X389173Y26179D01*
X389072Y26192D01*
X388972Y26209D01*
X388873Y26230D01*
X388775Y26254D01*
X388678Y26282D01*
X388581Y26314D01*
X388486Y26349D01*
X388393Y26388D01*
X388301Y26430D01*
X388210Y26476D01*
X388122Y26525D01*
X388035Y26577D01*
X387950Y26633D01*
X387867Y26691D01*
X387787Y26753D01*
X387709Y26818D01*
X387633Y26885D01*
X387560Y26955D01*
X387490Y27028D01*
X387423Y27104D01*
X387358Y27182D01*
X387296Y27262D01*
X387238Y27345D01*
X387182Y27430D01*
X387130Y27516D01*
X387081Y27605D01*
X387035Y27696D01*
X386993Y27788D01*
X386954Y27881D01*
X386919Y27976D01*
X386887Y28073D01*
X386859Y28170D01*
X386835Y28268D01*
X386814Y28367D01*
X386797Y28467D01*
X386784Y28568D01*
X386775Y28669D01*
X386769Y28770D01*
X386767Y28871D01*
X386766Y28871D02*
X386766Y34290D01*
X386767Y34290D02*
X386769Y34391D01*
X386775Y34492D01*
X386784Y34593D01*
X386797Y34694D01*
X386814Y34794D01*
X386835Y34893D01*
X386859Y34991D01*
X386887Y35088D01*
X386919Y35185D01*
X386954Y35280D01*
X386993Y35373D01*
X387035Y35465D01*
X387081Y35556D01*
X387130Y35645D01*
X387182Y35731D01*
X387238Y35816D01*
X387296Y35899D01*
X387358Y35979D01*
X387423Y36057D01*
X387490Y36133D01*
X387560Y36206D01*
X387633Y36276D01*
X387709Y36343D01*
X387787Y36408D01*
X387867Y36470D01*
X387950Y36528D01*
X388035Y36584D01*
X388122Y36636D01*
X388210Y36685D01*
X388301Y36731D01*
X388393Y36773D01*
X388486Y36812D01*
X388581Y36847D01*
X388678Y36879D01*
X388775Y36907D01*
X388873Y36931D01*
X388972Y36952D01*
X389072Y36969D01*
X389173Y36982D01*
X389274Y36991D01*
X389375Y36997D01*
X389476Y36999D01*
X393991Y36999D01*
X393991Y23453D01*
X393989Y23349D01*
X393983Y23246D01*
X393973Y23142D01*
X393959Y23039D01*
X393941Y22937D01*
X393920Y22836D01*
X393894Y22735D01*
X393865Y22636D01*
X393832Y22537D01*
X393795Y22440D01*
X393754Y22345D01*
X393710Y22251D01*
X393662Y22159D01*
X393611Y22069D01*
X393556Y21980D01*
X393498Y21894D01*
X393436Y21811D01*
X393372Y21729D01*
X393304Y21651D01*
X393234Y21575D01*
X393161Y21501D01*
X393084Y21431D01*
X393006Y21363D01*
X392924Y21299D01*
X392841Y21237D01*
X392755Y21179D01*
X392666Y21124D01*
X392576Y21073D01*
X392484Y21025D01*
X392390Y20981D01*
X392295Y20940D01*
X392198Y20903D01*
X392099Y20870D01*
X392000Y20841D01*
X391899Y20815D01*
X391798Y20794D01*
X391696Y20776D01*
X391593Y20762D01*
X391489Y20752D01*
X391386Y20746D01*
X391282Y20744D01*
X391282Y20743D02*
X387669Y20743D01*
X401513Y26162D02*
X401513Y36999D01*
X406932Y36999D01*
X406932Y35193D01*
X411849Y33387D02*
X411849Y29774D01*
X411850Y33387D02*
X411852Y33506D01*
X411858Y33626D01*
X411868Y33745D01*
X411882Y33863D01*
X411899Y33982D01*
X411921Y34099D01*
X411946Y34216D01*
X411976Y34331D01*
X412009Y34446D01*
X412046Y34560D01*
X412086Y34672D01*
X412131Y34783D01*
X412179Y34892D01*
X412230Y35000D01*
X412285Y35106D01*
X412344Y35210D01*
X412406Y35312D01*
X412471Y35412D01*
X412540Y35510D01*
X412612Y35606D01*
X412687Y35699D01*
X412764Y35789D01*
X412845Y35877D01*
X412929Y35962D01*
X413016Y36044D01*
X413105Y36124D01*
X413197Y36200D01*
X413291Y36274D01*
X413388Y36344D01*
X413486Y36411D01*
X413587Y36475D01*
X413691Y36535D01*
X413796Y36592D01*
X413903Y36645D01*
X414011Y36695D01*
X414121Y36741D01*
X414233Y36783D01*
X414346Y36822D01*
X414460Y36857D01*
X414575Y36888D01*
X414692Y36916D01*
X414809Y36939D01*
X414926Y36959D01*
X415045Y36975D01*
X415164Y36987D01*
X415283Y36995D01*
X415402Y36999D01*
X415522Y36999D01*
X415641Y36995D01*
X415760Y36987D01*
X415879Y36975D01*
X415998Y36959D01*
X416115Y36939D01*
X416232Y36916D01*
X416349Y36888D01*
X416464Y36857D01*
X416578Y36822D01*
X416691Y36783D01*
X416803Y36741D01*
X416913Y36695D01*
X417021Y36645D01*
X417128Y36592D01*
X417233Y36535D01*
X417337Y36475D01*
X417438Y36411D01*
X417536Y36344D01*
X417633Y36274D01*
X417727Y36200D01*
X417819Y36124D01*
X417908Y36044D01*
X417995Y35962D01*
X418079Y35877D01*
X418160Y35789D01*
X418237Y35699D01*
X418312Y35606D01*
X418384Y35510D01*
X418453Y35412D01*
X418518Y35312D01*
X418580Y35210D01*
X418639Y35106D01*
X418694Y35000D01*
X418745Y34892D01*
X418793Y34783D01*
X418838Y34672D01*
X418878Y34560D01*
X418915Y34446D01*
X418948Y34331D01*
X418978Y34216D01*
X419003Y34099D01*
X419025Y33982D01*
X419042Y33863D01*
X419056Y33745D01*
X419066Y33626D01*
X419072Y33506D01*
X419074Y33387D01*
X419074Y29774D01*
X419072Y29655D01*
X419066Y29535D01*
X419056Y29416D01*
X419042Y29298D01*
X419025Y29179D01*
X419003Y29062D01*
X418978Y28945D01*
X418948Y28830D01*
X418915Y28715D01*
X418878Y28601D01*
X418838Y28489D01*
X418793Y28378D01*
X418745Y28269D01*
X418694Y28161D01*
X418639Y28055D01*
X418580Y27951D01*
X418518Y27849D01*
X418453Y27749D01*
X418384Y27651D01*
X418312Y27555D01*
X418237Y27462D01*
X418160Y27372D01*
X418079Y27284D01*
X417995Y27199D01*
X417908Y27117D01*
X417819Y27037D01*
X417727Y26961D01*
X417633Y26887D01*
X417536Y26817D01*
X417438Y26750D01*
X417337Y26686D01*
X417233Y26626D01*
X417128Y26569D01*
X417021Y26516D01*
X416913Y26466D01*
X416803Y26420D01*
X416691Y26378D01*
X416578Y26339D01*
X416464Y26304D01*
X416349Y26273D01*
X416232Y26245D01*
X416115Y26222D01*
X415998Y26202D01*
X415879Y26186D01*
X415760Y26174D01*
X415641Y26166D01*
X415522Y26162D01*
X415402Y26162D01*
X415283Y26166D01*
X415164Y26174D01*
X415045Y26186D01*
X414926Y26202D01*
X414809Y26222D01*
X414692Y26245D01*
X414575Y26273D01*
X414460Y26304D01*
X414346Y26339D01*
X414233Y26378D01*
X414121Y26420D01*
X414011Y26466D01*
X413903Y26516D01*
X413796Y26569D01*
X413691Y26626D01*
X413587Y26686D01*
X413486Y26750D01*
X413388Y26817D01*
X413291Y26887D01*
X413197Y26961D01*
X413105Y27037D01*
X413016Y27117D01*
X412929Y27199D01*
X412845Y27284D01*
X412764Y27372D01*
X412687Y27462D01*
X412612Y27555D01*
X412540Y27651D01*
X412471Y27749D01*
X412406Y27849D01*
X412344Y27951D01*
X412285Y28055D01*
X412230Y28161D01*
X412179Y28269D01*
X412131Y28378D01*
X412086Y28489D01*
X412046Y28601D01*
X412009Y28715D01*
X411976Y28830D01*
X411946Y28945D01*
X411921Y29062D01*
X411899Y29179D01*
X411882Y29298D01*
X411868Y29416D01*
X411858Y29535D01*
X411852Y29655D01*
X411850Y29774D01*
X425918Y28871D02*
X425918Y36999D01*
X425918Y28871D02*
X425920Y28770D01*
X425926Y28669D01*
X425935Y28568D01*
X425948Y28467D01*
X425965Y28367D01*
X425986Y28268D01*
X426010Y28170D01*
X426038Y28073D01*
X426070Y27976D01*
X426105Y27881D01*
X426144Y27788D01*
X426186Y27696D01*
X426232Y27605D01*
X426281Y27516D01*
X426333Y27430D01*
X426389Y27345D01*
X426447Y27262D01*
X426509Y27182D01*
X426574Y27104D01*
X426641Y27028D01*
X426711Y26955D01*
X426784Y26885D01*
X426860Y26818D01*
X426938Y26753D01*
X427018Y26691D01*
X427101Y26633D01*
X427186Y26577D01*
X427273Y26525D01*
X427361Y26476D01*
X427452Y26430D01*
X427544Y26388D01*
X427637Y26349D01*
X427732Y26314D01*
X427829Y26282D01*
X427926Y26254D01*
X428024Y26230D01*
X428123Y26209D01*
X428223Y26192D01*
X428324Y26179D01*
X428425Y26170D01*
X428526Y26164D01*
X428627Y26162D01*
X433142Y26162D01*
X433142Y36999D01*
X440580Y36999D02*
X440580Y20743D01*
X440580Y36999D02*
X445095Y36999D01*
X445199Y36997D01*
X445302Y36991D01*
X445406Y36981D01*
X445509Y36967D01*
X445611Y36949D01*
X445712Y36928D01*
X445813Y36902D01*
X445912Y36873D01*
X446011Y36840D01*
X446108Y36803D01*
X446203Y36762D01*
X446297Y36718D01*
X446389Y36670D01*
X446479Y36619D01*
X446568Y36564D01*
X446654Y36506D01*
X446737Y36444D01*
X446819Y36380D01*
X446897Y36312D01*
X446973Y36242D01*
X447047Y36169D01*
X447117Y36092D01*
X447185Y36014D01*
X447249Y35932D01*
X447311Y35849D01*
X447369Y35763D01*
X447424Y35674D01*
X447475Y35584D01*
X447523Y35492D01*
X447567Y35398D01*
X447608Y35303D01*
X447645Y35206D01*
X447678Y35107D01*
X447707Y35008D01*
X447733Y34907D01*
X447754Y34806D01*
X447772Y34704D01*
X447786Y34601D01*
X447796Y34497D01*
X447802Y34394D01*
X447804Y34290D01*
X447805Y34290D02*
X447805Y28871D01*
X447804Y28871D02*
X447802Y28770D01*
X447796Y28669D01*
X447787Y28568D01*
X447774Y28467D01*
X447757Y28367D01*
X447736Y28268D01*
X447712Y28170D01*
X447684Y28073D01*
X447652Y27976D01*
X447617Y27881D01*
X447578Y27788D01*
X447536Y27696D01*
X447490Y27605D01*
X447441Y27516D01*
X447389Y27430D01*
X447333Y27345D01*
X447275Y27262D01*
X447213Y27182D01*
X447148Y27104D01*
X447081Y27028D01*
X447011Y26955D01*
X446938Y26885D01*
X446862Y26818D01*
X446784Y26753D01*
X446704Y26691D01*
X446621Y26633D01*
X446536Y26577D01*
X446450Y26525D01*
X446361Y26476D01*
X446270Y26430D01*
X446178Y26388D01*
X446085Y26349D01*
X445990Y26314D01*
X445893Y26282D01*
X445796Y26254D01*
X445698Y26230D01*
X445599Y26209D01*
X445499Y26192D01*
X445398Y26179D01*
X445297Y26170D01*
X445196Y26164D01*
X445095Y26162D01*
X440580Y26162D01*
X454193Y29774D02*
X457805Y42418D01*
X454193Y29774D02*
X463224Y29774D01*
X460514Y26162D02*
X460514Y33387D01*
X115062Y662432D02*
X115062Y678688D01*
X119578Y678688D01*
X119711Y678686D01*
X119843Y678680D01*
X119975Y678670D01*
X120107Y678657D01*
X120239Y678639D01*
X120369Y678618D01*
X120500Y678593D01*
X120629Y678564D01*
X120757Y678531D01*
X120885Y678495D01*
X121011Y678455D01*
X121136Y678411D01*
X121260Y678363D01*
X121382Y678312D01*
X121503Y678257D01*
X121622Y678199D01*
X121740Y678137D01*
X121855Y678072D01*
X121969Y678003D01*
X122080Y677932D01*
X122189Y677856D01*
X122296Y677778D01*
X122401Y677697D01*
X122503Y677612D01*
X122603Y677525D01*
X122700Y677435D01*
X122795Y677342D01*
X122886Y677246D01*
X122975Y677148D01*
X123061Y677047D01*
X123144Y676943D01*
X123224Y676837D01*
X123300Y676729D01*
X123374Y676619D01*
X123444Y676506D01*
X123511Y676392D01*
X123574Y676275D01*
X123634Y676157D01*
X123691Y676037D01*
X123744Y675915D01*
X123793Y675792D01*
X123839Y675668D01*
X123881Y675542D01*
X123919Y675415D01*
X123954Y675287D01*
X123985Y675158D01*
X124012Y675029D01*
X124035Y674898D01*
X124055Y674767D01*
X124070Y674635D01*
X124082Y674503D01*
X124090Y674371D01*
X124094Y674238D01*
X124094Y674106D01*
X124090Y673973D01*
X124082Y673841D01*
X124070Y673709D01*
X124055Y673577D01*
X124035Y673446D01*
X124012Y673315D01*
X123985Y673186D01*
X123954Y673057D01*
X123919Y672929D01*
X123881Y672802D01*
X123839Y672676D01*
X123793Y672552D01*
X123744Y672429D01*
X123691Y672307D01*
X123634Y672187D01*
X123574Y672069D01*
X123511Y671952D01*
X123444Y671838D01*
X123374Y671725D01*
X123300Y671615D01*
X123224Y671507D01*
X123144Y671401D01*
X123061Y671297D01*
X122975Y671196D01*
X122886Y671098D01*
X122795Y671002D01*
X122700Y670909D01*
X122603Y670819D01*
X122503Y670732D01*
X122401Y670647D01*
X122296Y670566D01*
X122189Y670488D01*
X122080Y670412D01*
X121969Y670341D01*
X121855Y670272D01*
X121740Y670207D01*
X121622Y670145D01*
X121503Y670087D01*
X121382Y670032D01*
X121260Y669981D01*
X121136Y669933D01*
X121011Y669889D01*
X120885Y669849D01*
X120757Y669813D01*
X120629Y669780D01*
X120500Y669751D01*
X120369Y669726D01*
X120239Y669705D01*
X120107Y669687D01*
X119975Y669674D01*
X119843Y669664D01*
X119711Y669658D01*
X119578Y669656D01*
X119578Y669657D02*
X115062Y669657D01*
X130059Y665141D02*
X130059Y678688D01*
X130059Y665141D02*
X130061Y665040D01*
X130067Y664939D01*
X130076Y664838D01*
X130089Y664737D01*
X130106Y664637D01*
X130127Y664538D01*
X130151Y664440D01*
X130179Y664343D01*
X130211Y664246D01*
X130246Y664151D01*
X130285Y664058D01*
X130327Y663966D01*
X130373Y663875D01*
X130422Y663787D01*
X130474Y663700D01*
X130530Y663615D01*
X130588Y663532D01*
X130650Y663452D01*
X130715Y663374D01*
X130782Y663298D01*
X130852Y663225D01*
X130925Y663155D01*
X131001Y663088D01*
X131079Y663023D01*
X131159Y662961D01*
X131242Y662903D01*
X131327Y662847D01*
X131414Y662795D01*
X131502Y662746D01*
X131593Y662700D01*
X131685Y662658D01*
X131778Y662619D01*
X131873Y662584D01*
X131970Y662552D01*
X132067Y662524D01*
X132165Y662500D01*
X132264Y662479D01*
X132364Y662462D01*
X132465Y662449D01*
X132566Y662440D01*
X132667Y662434D01*
X132768Y662432D01*
X141247Y668754D02*
X145311Y668754D01*
X141247Y668754D02*
X141135Y668752D01*
X141024Y668746D01*
X140913Y668736D01*
X140802Y668723D01*
X140692Y668705D01*
X140583Y668683D01*
X140474Y668658D01*
X140366Y668629D01*
X140260Y668596D01*
X140154Y668559D01*
X140050Y668519D01*
X139948Y668475D01*
X139847Y668427D01*
X139748Y668376D01*
X139650Y668321D01*
X139555Y668263D01*
X139462Y668202D01*
X139371Y668137D01*
X139282Y668069D01*
X139196Y667998D01*
X139113Y667925D01*
X139032Y667848D01*
X138953Y667768D01*
X138878Y667686D01*
X138806Y667601D01*
X138736Y667514D01*
X138670Y667424D01*
X138607Y667332D01*
X138547Y667237D01*
X138491Y667141D01*
X138438Y667043D01*
X138389Y666943D01*
X138343Y666841D01*
X138301Y666738D01*
X138262Y666633D01*
X138227Y666527D01*
X138196Y666420D01*
X138169Y666312D01*
X138145Y666203D01*
X138126Y666093D01*
X138110Y665983D01*
X138098Y665872D01*
X138090Y665760D01*
X138086Y665649D01*
X138086Y665537D01*
X138090Y665426D01*
X138098Y665314D01*
X138110Y665203D01*
X138126Y665093D01*
X138145Y664983D01*
X138169Y664874D01*
X138196Y664766D01*
X138227Y664659D01*
X138262Y664553D01*
X138301Y664448D01*
X138343Y664345D01*
X138389Y664243D01*
X138438Y664143D01*
X138491Y664045D01*
X138547Y663949D01*
X138607Y663854D01*
X138670Y663762D01*
X138736Y663672D01*
X138806Y663585D01*
X138878Y663500D01*
X138953Y663418D01*
X139032Y663338D01*
X139113Y663261D01*
X139196Y663188D01*
X139282Y663117D01*
X139371Y663049D01*
X139462Y662984D01*
X139555Y662923D01*
X139650Y662865D01*
X139748Y662810D01*
X139847Y662759D01*
X139948Y662711D01*
X140050Y662667D01*
X140154Y662627D01*
X140260Y662590D01*
X140366Y662557D01*
X140474Y662528D01*
X140583Y662503D01*
X140692Y662481D01*
X140802Y662463D01*
X140913Y662450D01*
X141024Y662440D01*
X141135Y662434D01*
X141247Y662432D01*
X145311Y662432D01*
X145311Y670560D01*
X145310Y670560D02*
X145308Y670661D01*
X145302Y670762D01*
X145293Y670863D01*
X145280Y670964D01*
X145263Y671064D01*
X145242Y671163D01*
X145218Y671261D01*
X145190Y671358D01*
X145158Y671455D01*
X145123Y671550D01*
X145084Y671643D01*
X145042Y671735D01*
X144996Y671826D01*
X144947Y671915D01*
X144895Y672001D01*
X144839Y672086D01*
X144781Y672169D01*
X144719Y672249D01*
X144654Y672327D01*
X144587Y672403D01*
X144517Y672476D01*
X144444Y672546D01*
X144368Y672613D01*
X144290Y672678D01*
X144210Y672740D01*
X144127Y672798D01*
X144042Y672854D01*
X143956Y672906D01*
X143867Y672955D01*
X143776Y673001D01*
X143684Y673043D01*
X143591Y673082D01*
X143496Y673117D01*
X143399Y673149D01*
X143302Y673177D01*
X143204Y673201D01*
X143105Y673222D01*
X143005Y673239D01*
X142904Y673252D01*
X142803Y673261D01*
X142702Y673267D01*
X142601Y673269D01*
X138989Y673269D01*
X152748Y673269D02*
X152748Y662432D01*
X152748Y673269D02*
X157264Y673269D01*
X157368Y673267D01*
X157471Y673261D01*
X157575Y673251D01*
X157678Y673237D01*
X157780Y673219D01*
X157881Y673198D01*
X157982Y673172D01*
X158081Y673143D01*
X158180Y673110D01*
X158277Y673073D01*
X158372Y673032D01*
X158466Y672988D01*
X158558Y672940D01*
X158648Y672889D01*
X158737Y672834D01*
X158823Y672776D01*
X158906Y672714D01*
X158988Y672650D01*
X159066Y672582D01*
X159142Y672512D01*
X159216Y672439D01*
X159286Y672362D01*
X159354Y672284D01*
X159418Y672202D01*
X159480Y672119D01*
X159538Y672033D01*
X159593Y671944D01*
X159644Y671854D01*
X159692Y671762D01*
X159736Y671668D01*
X159777Y671573D01*
X159814Y671476D01*
X159847Y671377D01*
X159876Y671278D01*
X159902Y671177D01*
X159923Y671076D01*
X159941Y670974D01*
X159955Y670871D01*
X159965Y670767D01*
X159971Y670664D01*
X159973Y670560D01*
X159973Y662432D01*
X165519Y673269D02*
X170938Y673269D01*
X167325Y678688D02*
X167325Y665141D01*
X167327Y665040D01*
X167333Y664939D01*
X167342Y664838D01*
X167355Y664737D01*
X167372Y664637D01*
X167393Y664538D01*
X167417Y664440D01*
X167445Y664343D01*
X167477Y664246D01*
X167512Y664151D01*
X167551Y664058D01*
X167593Y663966D01*
X167639Y663875D01*
X167688Y663787D01*
X167740Y663700D01*
X167796Y663615D01*
X167854Y663532D01*
X167916Y663452D01*
X167981Y663374D01*
X168048Y663298D01*
X168118Y663225D01*
X168191Y663155D01*
X168267Y663088D01*
X168345Y663023D01*
X168425Y662961D01*
X168508Y662903D01*
X168593Y662847D01*
X168680Y662795D01*
X168768Y662746D01*
X168859Y662700D01*
X168951Y662658D01*
X169044Y662619D01*
X169139Y662584D01*
X169236Y662552D01*
X169333Y662524D01*
X169431Y662500D01*
X169530Y662479D01*
X169630Y662462D01*
X169731Y662449D01*
X169832Y662440D01*
X169933Y662434D01*
X170034Y662432D01*
X170938Y662432D01*
X177587Y671463D02*
X182102Y671463D01*
X182102Y671464D02*
X182235Y671462D01*
X182367Y671456D01*
X182499Y671446D01*
X182631Y671433D01*
X182763Y671415D01*
X182893Y671394D01*
X183024Y671369D01*
X183153Y671340D01*
X183281Y671307D01*
X183409Y671271D01*
X183535Y671231D01*
X183660Y671187D01*
X183784Y671139D01*
X183906Y671088D01*
X184027Y671033D01*
X184146Y670975D01*
X184264Y670913D01*
X184379Y670848D01*
X184493Y670779D01*
X184604Y670708D01*
X184713Y670632D01*
X184820Y670554D01*
X184925Y670473D01*
X185027Y670388D01*
X185127Y670301D01*
X185224Y670211D01*
X185319Y670118D01*
X185410Y670022D01*
X185499Y669924D01*
X185585Y669823D01*
X185668Y669719D01*
X185748Y669613D01*
X185824Y669505D01*
X185898Y669395D01*
X185968Y669282D01*
X186035Y669168D01*
X186098Y669051D01*
X186158Y668933D01*
X186215Y668813D01*
X186268Y668691D01*
X186317Y668568D01*
X186363Y668444D01*
X186405Y668318D01*
X186443Y668191D01*
X186478Y668063D01*
X186509Y667934D01*
X186536Y667805D01*
X186559Y667674D01*
X186579Y667543D01*
X186594Y667411D01*
X186606Y667279D01*
X186614Y667147D01*
X186618Y667014D01*
X186618Y666882D01*
X186614Y666749D01*
X186606Y666617D01*
X186594Y666485D01*
X186579Y666353D01*
X186559Y666222D01*
X186536Y666091D01*
X186509Y665962D01*
X186478Y665833D01*
X186443Y665705D01*
X186405Y665578D01*
X186363Y665452D01*
X186317Y665328D01*
X186268Y665205D01*
X186215Y665083D01*
X186158Y664963D01*
X186098Y664845D01*
X186035Y664728D01*
X185968Y664614D01*
X185898Y664501D01*
X185824Y664391D01*
X185748Y664283D01*
X185668Y664177D01*
X185585Y664073D01*
X185499Y663972D01*
X185410Y663874D01*
X185319Y663778D01*
X185224Y663685D01*
X185127Y663595D01*
X185027Y663508D01*
X184925Y663423D01*
X184820Y663342D01*
X184713Y663264D01*
X184604Y663188D01*
X184493Y663117D01*
X184379Y663048D01*
X184264Y662983D01*
X184146Y662921D01*
X184027Y662863D01*
X183906Y662808D01*
X183784Y662757D01*
X183660Y662709D01*
X183535Y662665D01*
X183409Y662625D01*
X183281Y662589D01*
X183153Y662556D01*
X183024Y662527D01*
X182893Y662502D01*
X182763Y662481D01*
X182631Y662463D01*
X182499Y662450D01*
X182367Y662440D01*
X182235Y662434D01*
X182102Y662432D01*
X177587Y662432D01*
X177587Y678688D01*
X182102Y678688D01*
X182221Y678686D01*
X182341Y678680D01*
X182460Y678670D01*
X182578Y678656D01*
X182697Y678639D01*
X182814Y678617D01*
X182931Y678592D01*
X183046Y678562D01*
X183161Y678529D01*
X183275Y678492D01*
X183387Y678452D01*
X183498Y678407D01*
X183607Y678359D01*
X183715Y678308D01*
X183821Y678253D01*
X183925Y678194D01*
X184027Y678132D01*
X184127Y678067D01*
X184225Y677998D01*
X184321Y677926D01*
X184414Y677851D01*
X184504Y677774D01*
X184592Y677693D01*
X184677Y677609D01*
X184759Y677522D01*
X184839Y677433D01*
X184915Y677341D01*
X184989Y677247D01*
X185059Y677150D01*
X185126Y677052D01*
X185190Y676951D01*
X185250Y676847D01*
X185307Y676742D01*
X185360Y676635D01*
X185410Y676527D01*
X185456Y676417D01*
X185498Y676305D01*
X185537Y676192D01*
X185572Y676078D01*
X185603Y675963D01*
X185631Y675846D01*
X185654Y675729D01*
X185674Y675612D01*
X185690Y675493D01*
X185702Y675374D01*
X185710Y675255D01*
X185714Y675136D01*
X185714Y675016D01*
X185710Y674897D01*
X185702Y674778D01*
X185690Y674659D01*
X185674Y674540D01*
X185654Y674423D01*
X185631Y674306D01*
X185603Y674189D01*
X185572Y674074D01*
X185537Y673960D01*
X185498Y673847D01*
X185456Y673735D01*
X185410Y673625D01*
X185360Y673517D01*
X185307Y673410D01*
X185250Y673305D01*
X185190Y673201D01*
X185126Y673100D01*
X185059Y673002D01*
X184989Y672905D01*
X184915Y672811D01*
X184839Y672719D01*
X184759Y672630D01*
X184677Y672543D01*
X184592Y672459D01*
X184504Y672378D01*
X184414Y672301D01*
X184321Y672226D01*
X184225Y672154D01*
X184127Y672085D01*
X184027Y672020D01*
X183925Y671958D01*
X183821Y671899D01*
X183715Y671844D01*
X183607Y671793D01*
X183498Y671745D01*
X183387Y671700D01*
X183275Y671660D01*
X183161Y671623D01*
X183046Y671590D01*
X182931Y671560D01*
X182814Y671535D01*
X182697Y671513D01*
X182578Y671496D01*
X182460Y671482D01*
X182341Y671472D01*
X182221Y671466D01*
X182102Y671464D01*
X115062Y652018D02*
X120481Y635762D01*
X125899Y652018D01*
X131596Y648406D02*
X136112Y652018D01*
X136112Y635762D01*
X140627Y635762D02*
X131596Y635762D01*
D11*
X626047Y216300D02*
X643954Y216300D01*
X643954Y266300D02*
X626047Y266300D01*
X660000Y676847D02*
X660000Y694754D01*
X610000Y694754D02*
X610000Y676847D01*
X317100Y676847D02*
X317100Y694754D01*
X267100Y694754D02*
X267100Y676847D01*
D12*
X368300Y384556D02*
X368300Y364744D01*
X427990Y385064D02*
X427990Y404876D01*
X308610Y404876D02*
X308610Y385064D01*
X308610Y506984D02*
X308610Y526796D01*
X427990Y526796D02*
X427990Y506984D01*
X596900Y384556D02*
X596900Y364744D01*
X656590Y385064D02*
X656590Y404876D01*
X537210Y404876D02*
X537210Y385064D01*
X537210Y506984D02*
X537210Y526796D01*
X656590Y526796D02*
X656590Y506984D01*
D11*
X482200Y676847D02*
X482200Y694754D01*
X432200Y694754D02*
X432200Y676847D01*
D13*
X304800Y261620D02*
X304800Y246380D01*
X330200Y246380D02*
X330200Y261620D01*
X355600Y261620D02*
X355600Y246380D01*
X444500Y246380D02*
X444500Y261620D01*
X469900Y261620D02*
X469900Y246380D01*
X495300Y246380D02*
X495300Y261620D01*
D14*
X381000Y203200D03*
X304800Y203200D03*
X508000Y203200D03*
X431800Y203200D03*
D15*
X147240Y546100D02*
X132160Y546100D01*
X132160Y520700D02*
X147240Y520700D01*
X147240Y495300D02*
X132160Y495300D01*
X132160Y444500D02*
X147240Y444500D01*
X147240Y419100D02*
X132160Y419100D01*
X132160Y393700D02*
X147240Y393700D01*
D13*
X177800Y287020D02*
X177800Y271780D01*
X203200Y271780D02*
X203200Y287020D01*
X228600Y287020D02*
X228600Y271780D01*
X63500Y271780D02*
X63500Y287020D01*
X88900Y287020D02*
X88900Y271780D01*
X114300Y271780D02*
X114300Y287020D01*
D14*
X127000Y228600D03*
X50800Y228600D03*
D16*
X165100Y228600D03*
X241300Y228600D03*
D14*
X508000Y177800D03*
X431800Y177800D03*
X381000Y177800D03*
X304800Y177800D03*
D16*
X165100Y203200D03*
X241300Y203200D03*
D14*
X127000Y203200D03*
X50800Y203200D03*
D17*
X317500Y317500D03*
X419100Y317500D03*
X546100Y317500D03*
X647700Y317500D03*
D13*
X355600Y121920D02*
X355600Y106680D01*
X330200Y106680D02*
X330200Y121920D01*
X304800Y121920D02*
X304800Y106680D01*
X279400Y106680D02*
X279400Y121920D01*
D18*
X330200Y254000D02*
X330200Y304800D01*
X317500Y317500D01*
X309880Y325120D02*
X309880Y393700D01*
X309880Y325120D02*
X317500Y317500D01*
X309880Y393700D02*
X308610Y394970D01*
X317500Y538480D02*
X317500Y685800D01*
X317500Y538480D02*
X368300Y487680D01*
X368300Y374650D01*
X317500Y685800D02*
X317100Y685800D01*
X289560Y685800D02*
X267100Y685800D01*
X289560Y685800D02*
X312420Y708660D01*
X457200Y708660D01*
X480060Y685800D01*
X482200Y685800D01*
X610000Y685800D01*
X304800Y203200D02*
X304800Y177800D01*
X304800Y203200D02*
X304800Y254000D01*
X469900Y254000D02*
X533400Y317500D01*
X538480Y317500D01*
X538480Y393700D01*
X537210Y394970D01*
X538480Y317500D02*
X546100Y317500D01*
X431800Y203200D02*
X431800Y177800D01*
X444500Y215900D02*
X444500Y254000D01*
X444500Y215900D02*
X431800Y203200D01*
X508000Y203200D02*
X508000Y241300D01*
X495300Y254000D01*
X530860Y264160D02*
X635000Y264160D01*
X530860Y264160D02*
X508000Y241300D01*
X635000Y264160D02*
X635000Y266300D01*
X381000Y228600D02*
X381000Y203200D01*
X381000Y228600D02*
X355600Y254000D01*
X165100Y228600D02*
X127000Y228600D01*
X114300Y241300D02*
X114300Y279400D01*
X114300Y241300D02*
X127000Y228600D01*
X657860Y518160D02*
X657860Y685800D01*
X660000Y685800D01*
X657860Y518160D02*
X656590Y516890D01*
X431800Y520700D02*
X431800Y685800D01*
X431800Y520700D02*
X427990Y516890D01*
X431800Y685800D02*
X432200Y685800D01*
X50800Y228600D02*
X50800Y203200D01*
X63500Y241300D02*
X63500Y279400D01*
X63500Y241300D02*
X50800Y228600D01*
X241300Y228600D02*
X241300Y203200D01*
X228600Y228600D02*
X177800Y279400D01*
X228600Y228600D02*
X241300Y228600D01*
X139700Y330200D02*
X139700Y393700D01*
X139700Y330200D02*
X88900Y279400D01*
X139700Y469900D02*
X139700Y495300D01*
X139700Y469900D02*
X203200Y406400D01*
X203200Y279400D01*
X647700Y317500D02*
X647700Y386080D01*
X656590Y394970D01*
X635000Y238760D02*
X635000Y216300D01*
X635000Y238760D02*
X657860Y261620D01*
X657860Y307340D01*
X647700Y317500D01*
X139700Y419100D02*
X119380Y439420D01*
X119380Y500380D01*
X139700Y520700D01*
X419100Y386080D02*
X419100Y317500D01*
X419100Y386080D02*
X427990Y394970D01*
X149860Y203200D02*
X127000Y203200D01*
X149860Y203200D02*
X238760Y114300D01*
X279400Y114300D01*
X447040Y177800D02*
X508000Y177800D01*
X447040Y177800D02*
X383540Y114300D01*
X355600Y114300D01*
X381000Y165100D02*
X381000Y177800D01*
X381000Y165100D02*
X330200Y114300D01*
X215900Y203200D02*
X165100Y203200D01*
X215900Y203200D02*
X304800Y114300D01*
M02*
