G04 EAGLE Gerber RS-274X export*
G75*
%MOMM*%
%FSLAX34Y34*%
%LPD*%
%IN*%
%IPPOS*%
%AMOC8*
5,1,8,0,0,1.08239X$1,22.5*%
G01*
%ADD10C,0.254000*%


D10*
X0Y25400D02*
X97Y23186D01*
X386Y20989D01*
X865Y18826D01*
X1532Y16713D01*
X2380Y14666D01*
X3403Y12700D01*
X4594Y10831D01*
X5942Y9073D01*
X7440Y7440D01*
X9073Y5942D01*
X10831Y4594D01*
X12700Y3403D01*
X14666Y2380D01*
X16713Y1532D01*
X18826Y865D01*
X20989Y386D01*
X23186Y97D01*
X25400Y0D01*
X723700Y0D01*
X725914Y97D01*
X728111Y386D01*
X730274Y865D01*
X732387Y1532D01*
X734435Y2380D01*
X736400Y3403D01*
X738269Y4594D01*
X740027Y5942D01*
X741661Y7440D01*
X743158Y9073D01*
X744506Y10831D01*
X745697Y12700D01*
X746720Y14666D01*
X747568Y16713D01*
X748235Y18826D01*
X748714Y20989D01*
X749003Y23186D01*
X749100Y25400D01*
X749100Y784100D01*
X749003Y786314D01*
X748714Y788511D01*
X748235Y790674D01*
X747568Y792787D01*
X746720Y794835D01*
X745697Y796800D01*
X744506Y798669D01*
X743158Y800427D01*
X741661Y802061D01*
X740027Y803558D01*
X738269Y804906D01*
X736400Y806097D01*
X734435Y807120D01*
X732387Y807968D01*
X730274Y808635D01*
X728111Y809114D01*
X725914Y809403D01*
X723700Y809500D01*
X25400Y809500D01*
X23186Y809403D01*
X20989Y809114D01*
X18826Y808635D01*
X16713Y807968D01*
X14666Y807120D01*
X12700Y806097D01*
X10831Y804906D01*
X9073Y803558D01*
X7440Y802061D01*
X5942Y800427D01*
X4594Y798669D01*
X3403Y796800D01*
X2380Y794835D01*
X1532Y792787D01*
X865Y790674D01*
X386Y788511D01*
X97Y786314D01*
X0Y784100D01*
X0Y25400D01*
X66800Y37576D02*
X66732Y36531D01*
X66595Y35492D01*
X66390Y34465D01*
X66119Y33453D01*
X65783Y32461D01*
X65382Y31493D01*
X64918Y30554D01*
X64395Y29646D01*
X63813Y28775D01*
X63175Y27944D01*
X62484Y27157D01*
X61743Y26416D01*
X60956Y25725D01*
X60125Y25088D01*
X59254Y24506D01*
X58346Y23982D01*
X57407Y23518D01*
X56439Y23117D01*
X55447Y22781D01*
X54435Y22510D01*
X53408Y22305D01*
X52369Y22169D01*
X51324Y22100D01*
X50276Y22100D01*
X49231Y22169D01*
X48192Y22305D01*
X47165Y22510D01*
X46153Y22781D01*
X45161Y23117D01*
X44193Y23518D01*
X43254Y23982D01*
X42346Y24506D01*
X41475Y25088D01*
X40644Y25725D01*
X39857Y26416D01*
X39116Y27157D01*
X38425Y27944D01*
X37788Y28775D01*
X37206Y29646D01*
X36682Y30554D01*
X36218Y31493D01*
X35817Y32461D01*
X35481Y33453D01*
X35210Y34465D01*
X35005Y35492D01*
X34869Y36531D01*
X34800Y37576D01*
X34800Y38624D01*
X34869Y39669D01*
X35005Y40708D01*
X35210Y41735D01*
X35481Y42747D01*
X35817Y43739D01*
X36218Y44707D01*
X36682Y45646D01*
X37206Y46554D01*
X37788Y47425D01*
X38425Y48256D01*
X39116Y49043D01*
X39857Y49784D01*
X40644Y50475D01*
X41475Y51113D01*
X42346Y51695D01*
X43254Y52218D01*
X44193Y52682D01*
X45161Y53083D01*
X46153Y53419D01*
X47165Y53690D01*
X48192Y53895D01*
X49231Y54032D01*
X50276Y54100D01*
X51324Y54100D01*
X52369Y54032D01*
X53408Y53895D01*
X54435Y53690D01*
X55447Y53419D01*
X56439Y53083D01*
X57407Y52682D01*
X58346Y52218D01*
X59254Y51695D01*
X60125Y51113D01*
X60956Y50475D01*
X61743Y49784D01*
X62484Y49043D01*
X63175Y48256D01*
X63813Y47425D01*
X64395Y46554D01*
X64918Y45646D01*
X65382Y44707D01*
X65783Y43739D01*
X66119Y42747D01*
X66390Y41735D01*
X66595Y40708D01*
X66732Y39669D01*
X66800Y38624D01*
X66800Y37576D01*
X714500Y37576D02*
X714432Y36531D01*
X714295Y35492D01*
X714090Y34465D01*
X713819Y33453D01*
X713483Y32461D01*
X713082Y31493D01*
X712618Y30554D01*
X712095Y29646D01*
X711513Y28775D01*
X710875Y27944D01*
X710184Y27157D01*
X709443Y26416D01*
X708656Y25725D01*
X707825Y25088D01*
X706954Y24506D01*
X706046Y23982D01*
X705107Y23518D01*
X704139Y23117D01*
X703147Y22781D01*
X702135Y22510D01*
X701108Y22305D01*
X700069Y22169D01*
X699024Y22100D01*
X697976Y22100D01*
X696931Y22169D01*
X695892Y22305D01*
X694865Y22510D01*
X693853Y22781D01*
X692861Y23117D01*
X691893Y23518D01*
X690954Y23982D01*
X690046Y24506D01*
X689175Y25088D01*
X688344Y25725D01*
X687557Y26416D01*
X686816Y27157D01*
X686125Y27944D01*
X685488Y28775D01*
X684906Y29646D01*
X684382Y30554D01*
X683918Y31493D01*
X683517Y32461D01*
X683181Y33453D01*
X682910Y34465D01*
X682705Y35492D01*
X682569Y36531D01*
X682500Y37576D01*
X682500Y38624D01*
X682569Y39669D01*
X682705Y40708D01*
X682910Y41735D01*
X683181Y42747D01*
X683517Y43739D01*
X683918Y44707D01*
X684382Y45646D01*
X684906Y46554D01*
X685488Y47425D01*
X686125Y48256D01*
X686816Y49043D01*
X687557Y49784D01*
X688344Y50475D01*
X689175Y51113D01*
X690046Y51695D01*
X690954Y52218D01*
X691893Y52682D01*
X692861Y53083D01*
X693853Y53419D01*
X694865Y53690D01*
X695892Y53895D01*
X696931Y54032D01*
X697976Y54100D01*
X699024Y54100D01*
X700069Y54032D01*
X701108Y53895D01*
X702135Y53690D01*
X703147Y53419D01*
X704139Y53083D01*
X705107Y52682D01*
X706046Y52218D01*
X706954Y51695D01*
X707825Y51113D01*
X708656Y50475D01*
X709443Y49784D01*
X710184Y49043D01*
X710875Y48256D01*
X711513Y47425D01*
X712095Y46554D01*
X712618Y45646D01*
X713082Y44707D01*
X713483Y43739D01*
X713819Y42747D01*
X714090Y41735D01*
X714295Y40708D01*
X714432Y39669D01*
X714500Y38624D01*
X714500Y37576D01*
X66800Y761476D02*
X66732Y760431D01*
X66595Y759392D01*
X66390Y758365D01*
X66119Y757353D01*
X65783Y756361D01*
X65382Y755393D01*
X64918Y754454D01*
X64395Y753546D01*
X63813Y752675D01*
X63175Y751844D01*
X62484Y751057D01*
X61743Y750316D01*
X60956Y749625D01*
X60125Y748988D01*
X59254Y748406D01*
X58346Y747882D01*
X57407Y747418D01*
X56439Y747017D01*
X55447Y746681D01*
X54435Y746410D01*
X53408Y746205D01*
X52369Y746069D01*
X51324Y746000D01*
X50276Y746000D01*
X49231Y746069D01*
X48192Y746205D01*
X47165Y746410D01*
X46153Y746681D01*
X45161Y747017D01*
X44193Y747418D01*
X43254Y747882D01*
X42346Y748406D01*
X41475Y748988D01*
X40644Y749625D01*
X39857Y750316D01*
X39116Y751057D01*
X38425Y751844D01*
X37788Y752675D01*
X37206Y753546D01*
X36682Y754454D01*
X36218Y755393D01*
X35817Y756361D01*
X35481Y757353D01*
X35210Y758365D01*
X35005Y759392D01*
X34869Y760431D01*
X34800Y761476D01*
X34800Y762524D01*
X34869Y763569D01*
X35005Y764608D01*
X35210Y765635D01*
X35481Y766647D01*
X35817Y767639D01*
X36218Y768607D01*
X36682Y769546D01*
X37206Y770454D01*
X37788Y771325D01*
X38425Y772156D01*
X39116Y772943D01*
X39857Y773684D01*
X40644Y774375D01*
X41475Y775013D01*
X42346Y775595D01*
X43254Y776118D01*
X44193Y776582D01*
X45161Y776983D01*
X46153Y777319D01*
X47165Y777590D01*
X48192Y777795D01*
X49231Y777932D01*
X50276Y778000D01*
X51324Y778000D01*
X52369Y777932D01*
X53408Y777795D01*
X54435Y777590D01*
X55447Y777319D01*
X56439Y776983D01*
X57407Y776582D01*
X58346Y776118D01*
X59254Y775595D01*
X60125Y775013D01*
X60956Y774375D01*
X61743Y773684D01*
X62484Y772943D01*
X63175Y772156D01*
X63813Y771325D01*
X64395Y770454D01*
X64918Y769546D01*
X65382Y768607D01*
X65783Y767639D01*
X66119Y766647D01*
X66390Y765635D01*
X66595Y764608D01*
X66732Y763569D01*
X66800Y762524D01*
X66800Y761476D01*
X714500Y761476D02*
X714432Y760431D01*
X714295Y759392D01*
X714090Y758365D01*
X713819Y757353D01*
X713483Y756361D01*
X713082Y755393D01*
X712618Y754454D01*
X712095Y753546D01*
X711513Y752675D01*
X710875Y751844D01*
X710184Y751057D01*
X709443Y750316D01*
X708656Y749625D01*
X707825Y748988D01*
X706954Y748406D01*
X706046Y747882D01*
X705107Y747418D01*
X704139Y747017D01*
X703147Y746681D01*
X702135Y746410D01*
X701108Y746205D01*
X700069Y746069D01*
X699024Y746000D01*
X697976Y746000D01*
X696931Y746069D01*
X695892Y746205D01*
X694865Y746410D01*
X693853Y746681D01*
X692861Y747017D01*
X691893Y747418D01*
X690954Y747882D01*
X690046Y748406D01*
X689175Y748988D01*
X688344Y749625D01*
X687557Y750316D01*
X686816Y751057D01*
X686125Y751844D01*
X685488Y752675D01*
X684906Y753546D01*
X684382Y754454D01*
X683918Y755393D01*
X683517Y756361D01*
X683181Y757353D01*
X682910Y758365D01*
X682705Y759392D01*
X682569Y760431D01*
X682500Y761476D01*
X682500Y762524D01*
X682569Y763569D01*
X682705Y764608D01*
X682910Y765635D01*
X683181Y766647D01*
X683517Y767639D01*
X683918Y768607D01*
X684382Y769546D01*
X684906Y770454D01*
X685488Y771325D01*
X686125Y772156D01*
X686816Y772943D01*
X687557Y773684D01*
X688344Y774375D01*
X689175Y775013D01*
X690046Y775595D01*
X690954Y776118D01*
X691893Y776582D01*
X692861Y776983D01*
X693853Y777319D01*
X694865Y777590D01*
X695892Y777795D01*
X696931Y777932D01*
X697976Y778000D01*
X699024Y778000D01*
X700069Y777932D01*
X701108Y777795D01*
X702135Y777590D01*
X703147Y777319D01*
X704139Y776983D01*
X705107Y776582D01*
X706046Y776118D01*
X706954Y775595D01*
X707825Y775013D01*
X708656Y774375D01*
X709443Y773684D01*
X710184Y772943D01*
X710875Y772156D01*
X711513Y771325D01*
X712095Y770454D01*
X712618Y769546D01*
X713082Y768607D01*
X713483Y767639D01*
X713819Y766647D01*
X714090Y765635D01*
X714295Y764608D01*
X714432Y763569D01*
X714500Y762524D01*
X714500Y761476D01*
M02*
