M48
;GenerationSoftware,Autodesk,EAGLE,9.6.2*%
;CreationDate,2021-03-31T16:01:55Z*%
FMAT,2
ICI,OFF
METRIC,TZ,000.000
T7C0.813
T6C1.000
T5C1.016
T4C1.118
T3C1.194
T2C1.321
T1C3.200
%
G90
M71
T1
X5080Y3810
X69850Y3810
X5080Y76200
X69850Y76200
T2
X65659Y39497
X36830Y37465
X42799Y39497
X30861Y39497
X30861Y51689
X42799Y51689
X59690Y37465
X53721Y39497
X53721Y51689
X65659Y51689
T3
X63500Y21630
X63500Y26630
X66000Y68580
X61000Y68580
X26710Y68580
X31710Y68580
X48220Y68580
X43220Y68580
T4
X41910Y31750
X31750Y31750
X64770Y31750
X54610Y31750
T5
X30480Y25400
X33020Y25400
X35560Y25400
X44450Y25400
X46990Y25400
X49530Y25400
X22860Y27940
X17780Y27940
X20320Y27940
X6350Y27940
X8890Y27940
X11430Y27940
X27940Y11430
X35560Y11430
X33020Y11430
X30480Y11430
T6
X13970Y41910
X13970Y39370
X13970Y52070
X13970Y49530
X13970Y54610
X13970Y44450
T7
X12700Y22860
X5080Y22860
X16510Y22860
X50800Y17780
X43180Y17780
X38100Y17780
X30480Y17780
X16510Y20320
X24130Y20320
X12700Y20320
X24130Y22860
X43180Y20320
X50800Y20320
X30480Y20320
X38100Y20320
X5080Y20320
M30